<mxfile host="app.diagrams.net" modified="2021-11-19T04:32:43.655Z" agent="5.0 (Windows)" etag="Rc10yFZ4ConI5seAszy6" version="14.6.11" type="github">
  <diagram id="0FGwAVxZdnHUsOcSid0F" name="Page-1">
    <mxGraphModel dx="782" dy="540" grid="0" gridSize="10" guides="1" tooltips="1" connect="1" arrows="1" fold="1" page="1" pageScale="1" pageWidth="827" pageHeight="1169" math="0" shadow="0">
      <root>
        <mxCell id="0" />
        <mxCell id="1" parent="0" />
        <mxCell id="7NwELzO_9keqCQUc9yeR-1" value="" style="whiteSpace=wrap;html=1;aspect=fixed;dashed=1;" parent="1" vertex="1">
          <mxGeometry x="110" y="160" width="140" height="140" as="geometry" />
        </mxCell>
        <mxCell id="7NwELzO_9keqCQUc9yeR-2" value="数据准备" style="text;html=1;align=center;verticalAlign=middle;whiteSpace=wrap;rounded=0;dashed=1;labelBackgroundColor=none;fillColor=#ffffff;" parent="1" vertex="1">
          <mxGeometry x="135" y="130" width="90" height="60" as="geometry" />
        </mxCell>
        <mxCell id="7NwELzO_9keqCQUc9yeR-3" value="&lt;div&gt;数据&lt;/div&gt;&lt;div&gt;下载&lt;br&gt;&lt;/div&gt;" style="whiteSpace=wrap;html=1;aspect=fixed;labelBackgroundColor=none;fillColor=#FFB366;" parent="1" vertex="1">
          <mxGeometry x="120" y="180" width="50" height="50" as="geometry" />
        </mxCell>
        <mxCell id="7NwELzO_9keqCQUc9yeR-4" value="&lt;div&gt;读取&lt;/div&gt;&lt;div&gt;数据&lt;br&gt;&lt;/div&gt;" style="whiteSpace=wrap;html=1;aspect=fixed;labelBackgroundColor=none;fillColor=#FFCC99;" parent="1" vertex="1">
          <mxGeometry x="190" y="180" width="50" height="50" as="geometry" />
        </mxCell>
        <mxCell id="7NwELzO_9keqCQUc9yeR-5" value="&lt;div&gt;数据&lt;/div&gt;&lt;div&gt;标准化&lt;br&gt;&lt;/div&gt;" style="whiteSpace=wrap;html=1;aspect=fixed;labelBackgroundColor=none;fillColor=#FFFFCC;" parent="1" vertex="1">
          <mxGeometry x="189" y="240" width="50" height="50" as="geometry" />
        </mxCell>
        <mxCell id="7NwELzO_9keqCQUc9yeR-6" value="" style="endArrow=classic;html=1;" parent="1" edge="1">
          <mxGeometry width="50" height="50" relative="1" as="geometry">
            <mxPoint x="250" y="230" as="sourcePoint" />
            <mxPoint x="300" y="230" as="targetPoint" />
          </mxGeometry>
        </mxCell>
        <mxCell id="7NwELzO_9keqCQUc9yeR-7" value="" style="whiteSpace=wrap;html=1;aspect=fixed;dashed=1;" parent="1" vertex="1">
          <mxGeometry x="300" y="160" width="140" height="140" as="geometry" />
        </mxCell>
        <mxCell id="7NwELzO_9keqCQUc9yeR-8" value="模型导入与训练" style="text;html=1;align=center;verticalAlign=middle;whiteSpace=wrap;rounded=0;dashed=1;labelBackgroundColor=none;fillColor=#ffffff;" parent="1" vertex="1">
          <mxGeometry x="325" y="130" width="90" height="60" as="geometry" />
        </mxCell>
        <mxCell id="7NwELzO_9keqCQUc9yeR-9" value="&lt;div&gt;模型&lt;/div&gt;&lt;div&gt;导入&lt;br&gt;&lt;/div&gt;" style="whiteSpace=wrap;html=1;aspect=fixed;labelBackgroundColor=none;fillColor=#5B4FFF;" parent="1" vertex="1">
          <mxGeometry x="310" y="180" width="50" height="50" as="geometry" />
        </mxCell>
        <mxCell id="7NwELzO_9keqCQUc9yeR-10" value="&lt;div&gt;超参数&lt;/div&gt;&lt;div&gt;调整&lt;/div&gt;" style="whiteSpace=wrap;html=1;aspect=fixed;labelBackgroundColor=none;fillColor=#3399FF;" parent="1" vertex="1">
          <mxGeometry x="380" y="180" width="50" height="50" as="geometry" />
        </mxCell>
        <mxCell id="7NwELzO_9keqCQUc9yeR-11" value="&lt;div&gt;迭代&lt;/div&gt;&lt;div&gt;训练&lt;/div&gt;" style="whiteSpace=wrap;html=1;aspect=fixed;labelBackgroundColor=none;fillColor=#7EA6E0;" parent="1" vertex="1">
          <mxGeometry x="310" y="240" width="50" height="50" as="geometry" />
        </mxCell>
        <mxCell id="86Ns1k28Frmv3bGaSt8o-1" value="&lt;div&gt;保存&lt;/div&gt;&lt;div&gt;参数&lt;br&gt;&lt;/div&gt;" style="whiteSpace=wrap;html=1;aspect=fixed;labelBackgroundColor=none;fillColor=#99CCFF;" parent="1" vertex="1">
          <mxGeometry x="380" y="240" width="50" height="50" as="geometry" />
        </mxCell>
        <mxCell id="86Ns1k28Frmv3bGaSt8o-7" value="" style="whiteSpace=wrap;html=1;aspect=fixed;dashed=1;" parent="1" vertex="1">
          <mxGeometry x="490" y="160" width="140" height="140" as="geometry" />
        </mxCell>
        <mxCell id="86Ns1k28Frmv3bGaSt8o-8" value="模型预测" style="text;html=1;align=center;verticalAlign=middle;whiteSpace=wrap;rounded=0;dashed=1;labelBackgroundColor=none;fillColor=#ffffff;" parent="1" vertex="1">
          <mxGeometry x="515" y="130" width="90" height="60" as="geometry" />
        </mxCell>
        <mxCell id="86Ns1k28Frmv3bGaSt8o-9" value="&lt;div&gt;加载&lt;/div&gt;&lt;div&gt;参数&lt;br&gt;&lt;/div&gt;" style="whiteSpace=wrap;html=1;aspect=fixed;labelBackgroundColor=none;fillColor=#66CC00;" parent="1" vertex="1">
          <mxGeometry x="500" y="205" width="50" height="50" as="geometry" />
        </mxCell>
        <mxCell id="86Ns1k28Frmv3bGaSt8o-10" value="&lt;div&gt;AUC&lt;/div&gt;&lt;div&gt;计算&lt;/div&gt;" style="whiteSpace=wrap;html=1;aspect=fixed;labelBackgroundColor=none;fillColor=#CCFF99;" parent="1" vertex="1">
          <mxGeometry x="570" y="205" width="50" height="50" as="geometry" />
        </mxCell>
        <mxCell id="86Ns1k28Frmv3bGaSt8o-13" value="" style="endArrow=classic;html=1;" parent="1" edge="1">
          <mxGeometry width="50" height="50" relative="1" as="geometry">
            <mxPoint x="440" y="200" as="sourcePoint" />
            <mxPoint x="490" y="200" as="targetPoint" />
          </mxGeometry>
        </mxCell>
        <mxCell id="86Ns1k28Frmv3bGaSt8o-14" value="" style="endArrow=classic;html=1;" parent="1" edge="1">
          <mxGeometry width="50" height="50" relative="1" as="geometry">
            <mxPoint x="490" y="264.5" as="sourcePoint" />
            <mxPoint x="440" y="264.5" as="targetPoint" />
          </mxGeometry>
        </mxCell>
        <mxCell id="tmoRHpanbDGSf-BBByS2-1" value="&lt;div&gt;数据&lt;/div&gt;&lt;div&gt;处理&lt;br&gt;&lt;/div&gt;" style="whiteSpace=wrap;html=1;aspect=fixed;labelBackgroundColor=none;fillColor=#fff2cc;strokeColor=#d6b656;" vertex="1" parent="1">
          <mxGeometry x="120" y="240" width="50" height="50" as="geometry" />
        </mxCell>
      </root>
    </mxGraphModel>
  </diagram>
</mxfile>
